<?xml version="1.0" encoding="UTF-8"?><svg id="Layer_1" xmlns="http://www.w3.org/2000/svg" xmlns:xlink="http://www.w3.org/1999/xlink" viewBox="0 0 962.19 1080"><defs><clipPath id="clippath"><rect x="-957.81" width="1920" height="1080" style="fill:none;"/></clipPath><clipPath id="clippath-1"><rect x="-957.81" width="1920" height="1080" style="fill:none;"/></clipPath></defs><g style="clip-path:url(#clippath);"><g style="clip-path:url(#clippath-1);"><rect x="-.07" width="962.27" height="1080" style="fill:#f7e8d7;"/><path d="M274.15,816.1c0,118.35,95.94,214.29,214.29,214.29v-214.29h-214.29Z" style="fill:#ffae00;"/><path d="M274.15,816.1c-118.35,0-214.29,95.94-214.29,214.29h214.29s0-214.29,0-214.29Z" style="fill:#ffae00;"/><path d="M274.15,816.1c0-118.35-95.94-214.29-214.29-214.29v214.29h214.29Z" style="fill:#ffae00;"/><path d="M274.15,816.1c118.35,0,214.29-95.94,214.29-214.29h-214.29s0,214.29,0,214.29Z" style="fill:#ffae00;"/><polygon points="512.25 1030.39 613.45 1030.39 562.85 816.1 512.25 1030.39" style="fill:#9a5027;"/><polygon points="613.45 1030.39 714.64 1030.39 664.04 816.1 613.45 1030.39" style="fill:#9a5027;"/><polygon points="714.64 1030.39 815.83 1030.39 765.24 816.1 714.64 1030.39" style="fill:#9a5027;"/><polygon points="866.43 816.1 815.84 1030.39 917.03 1030.39 866.43 816.1" style="fill:#9a5027;"/><path d="M614.96,697.1s0-.04,0-.05,0-.04,0-.06c20.62-.57,42.69-9.91,60.25-27.47,19.64-19.64,29.03-44.93,27.33-67.52-22.58-1.7-47.88,7.69-67.52,27.33-17.56,17.56-26.9,39.63-27.47,60.25-.02,0-.04,0-.06,0s-.04,0-.06,0c-.57-20.62-9.91-42.69-27.47-60.25-19.64-19.64-44.94-29.03-67.52-27.33-1.7,22.58,7.69,47.88,27.33,67.52,17.56,17.56,39.63,26.9,60.25,27.47,0,.02,0,.04,0,.06s0,.04,0,.05c-20.62.57-42.69,9.91-60.25,27.47-19.64,19.64-29.03,44.93-27.33,67.52,22.58,1.7,47.88-7.69,67.52-27.33,17.56-17.56,26.9-39.63,27.47-60.25.02,0,.04,0,.06,0s.04,0,.06,0c.57,20.62,9.91,42.69,27.47,60.25,19.64,19.64,44.93,29.03,67.52,27.33,1.7-22.58-7.69-47.88-27.33-67.52-17.56-17.56-39.63-26.9-60.25-27.47" style="fill:#5f2300;"/><path d="M829.26,697.1s0-.04,0-.05,0-.04,0-.06c20.62-.57,42.69-9.91,60.25-27.47,19.64-19.64,29.03-44.93,27.33-67.52-22.58-1.7-47.88,7.69-67.52,27.33-17.56,17.56-26.9,39.63-27.47,60.25-.02,0-.04,0-.06,0s-.04,0-.05,0c-.57-20.62-9.91-42.69-27.47-60.25-19.64-19.64-44.94-29.03-67.52-27.33-1.7,22.58,7.69,47.88,27.33,67.52,17.56,17.56,39.63,26.9,60.25,27.47,0,.02,0,.04,0,.06s0,.04,0,.05c-20.62.57-42.69,9.91-60.25,27.47-19.64,19.64-29.03,44.93-27.33,67.52,22.58,1.7,47.88-7.69,67.52-27.33,17.56-17.56,26.9-39.63,27.47-60.25.02,0,.04,0,.05,0s.04,0,.06,0c.57,20.62,9.91,42.69,27.47,60.25,19.64,19.64,44.93,29.03,67.52,27.33,1.7-22.58-7.69-47.88-27.33-67.52-17.56-17.56-39.63-26.9-60.25-27.47" style="fill:#9a5027;"/><path d="M199.49,466.57c8.62-5.86,17.23-12.95,25.43-21.15,18.72-18.72,31.67-39.57,37.34-57.91-18.34,5.66-39.19,18.61-57.91,37.34-8.2,8.2-15.29,16.8-21.15,25.43-2.72-24.32-8.43-45.95-16.19-62.76-7.76,16.82-13.46,38.45-16.19,62.76-5.86-8.62-12.95-17.23-21.15-25.43-18.72-18.72-39.57-31.67-57.91-37.34,5.66,18.34,18.61,39.18,37.34,57.9,8.2,8.2,16.8,15.29,25.43,21.15-24.32,2.72-45.95,8.43-62.76,16.19,16.82,7.76,38.45,13.47,62.76,16.19-8.62,5.86-17.23,12.95-25.43,21.15-18.72,18.72-31.67,39.57-37.34,57.91,18.34-5.66,39.18-18.61,57.91-37.34,8.2-8.2,15.29-16.8,21.15-25.43,2.72,24.32,8.43,45.95,16.19,62.76,7.76-16.82,13.47-38.45,16.19-62.76,5.86,8.62,12.95,17.23,21.15,25.43,18.72,18.72,39.57,31.67,57.91,37.34-5.66-18.34-18.61-39.18-37.34-57.91-8.2-8.2-16.8-15.29-25.43-21.15,24.32-2.72,45.95-8.43,62.76-16.19-16.82-7.76-38.45-13.46-62.76-16.19" style="fill:#5f2300;"/><polygon points="476.54 578 476.54 482.76 381.3 482.76 476.54 578" style="fill:#9a5027;"/><polygon points="286.06 578 381.3 578 381.3 482.76 286.06 578" style="fill:#9a5027;"/><polygon points="286.06 387.51 286.06 482.76 381.3 482.76 286.06 387.51" style="fill:#9a5027;"/><polygon points="476.54 387.51 381.3 387.51 381.3 482.76 476.54 387.51" style="fill:#9a5027;"/><polygon points="512.25 387.51 512.25 482.76 607.5 482.76 512.25 387.51" style="fill:#ff312e;"/><polygon points="607.5 387.51 607.5 482.76 702.74 482.76 607.5 387.51" style="fill:#ff312e;"/><polygon points="512.25 482.76 512.25 578 607.5 578 512.25 482.76" style="fill:#ff312e;"/><polygon points="607.5 482.76 607.5 578 702.74 578 607.5 482.76" style="fill:#ff312e;"/><polygon points="917.03 363.71 359.15 311.12 838.73 258.54 359.15 205.96 838.73 153.38 359.15 100.8 917.03 48.22 252.97 48.22 252.97 363.7 917.03 363.71" style="fill:#ff312e;"/><polygon points="96.33 169.5 181.14 169.5 138.73 127.09 96.33 169.5" style="fill:#ffae00;"/><polygon points="181.14 84.68 96.33 84.68 138.73 127.09 181.14 84.68" style="fill:#ffae00;"/><polygon points="96.33 84.68 59.86 48.22 59.86 48.68 59.86 205.5 59.86 205.96 96.33 169.5 96.33 84.68" style="fill:#ffae00;"/><polygon points="181.14 84.68 181.14 84.68 181.14 169.5 217.61 205.96 217.61 205.5 217.61 48.68 217.61 48.22 181.14 84.68" style="fill:#ffae00;"/><polygon points="96.33 242.43 96.33 327.24 138.73 284.83 96.33 242.43" style="fill:#ffae00;"/><polygon points="181.14 327.24 181.14 242.43 138.73 284.83 181.14 327.24" style="fill:#ffae00;"/><polygon points="181.14 242.43 217.61 205.96 217.14 205.96 60.32 205.96 59.86 205.96 96.33 242.43 181.14 242.43" style="fill:#ffae00;"/><polygon points="181.14 327.24 96.33 327.24 59.86 363.71 60.32 363.71 217.14 363.71 217.6 363.71 181.14 327.24" style="fill:#ffae00;"/><path d="M910.84,482.06l4.91-17.11c1.54-5.38-.01-11.17-4.03-15.05l-12.8-12.36-4.3-17.27c-1.35-5.43-5.59-9.67-11.02-11.02l-17.27-4.3-12.36-12.8c-3.89-4.03-9.68-5.58-15.05-4.03l-17.11,4.91-17.11-4.91c-5.38-1.54-11.17,0-15.05,4.03l-12.36,12.8-17.27,4.3c-5.43,1.35-9.67,5.59-11.02,11.02l-4.31,17.27-12.8,12.36c-4.02,3.89-5.58,9.68-4.03,15.06l4.91,17.11-4.91,17.11c-1.54,5.38,0,11.17,4.03,15.06l12.8,12.36,4.31,17.27c1.35,5.43,5.59,9.67,11.02,11.02l17.27,4.31,12.36,12.8c3.89,4.02,9.68,5.58,15.05,4.03l17.11-4.9,17.11,4.9c5.38,1.54,11.17,0,15.05-4.03l12.36-12.8,17.27-4.3c5.43-1.35,9.67-5.59,11.02-11.02l4.31-17.27,12.8-12.36c4.02-3.89,5.58-9.68,4.03-15.05l-4.91-17.11ZM789.4,487.26l-7.57-3.26c-1.7-.73-1.7-3.14,0-3.88l7.57-3.26c.53-.23,1.14-.23,1.67,0l7.56,3.26c1.7.73,1.7,3.15,0,3.88l-7.56,3.26c-.53.23-1.14.23-1.67,0M808.05,498.54l-3.05,7.65c-.21.54-.64.97-1.18,1.18l-7.65,3.05c-1.72.68-3.43-1.02-2.74-2.74l3.05-7.65c.21-.54.64-.97,1.18-1.18l7.66-3.04c1.72-.68,3.43,1.02,2.74,2.74M805.31,468.32l-7.66-3.05c-.54-.21-.97-.64-1.18-1.18l-3.05-7.66c-.68-1.72,1.02-3.43,2.74-2.74l7.65,3.04c.54.21.97.64,1.18,1.18l3.05,7.65c.68,1.72-1.02,3.43-2.74,2.74M826.99,514.45l-3.26,7.57c-.73,1.7-3.15,1.7-3.88,0l-3.26-7.57c-.23-.53-.23-1.14,0-1.67l3.26-7.57c.73-1.7,3.15-1.7,3.88,0l3.26,7.57c.23.53.23,1.14,0,1.67M826.99,451.34l-3.26,7.57c-.73,1.7-3.15,1.7-3.88,0l-3.26-7.57c-.23-.53-.23-1.14,0-1.67l3.26-7.57c.73-1.7,3.15-1.7,3.88,0l3.26,7.57c.23.53.23,1.14,0,1.67M835.53,465.58l3.05-7.65c.21-.54.64-.97,1.18-1.18l7.65-3.04c1.72-.68,3.43,1.02,2.74,2.74l-3.05,7.66c-.21.54-.64.97-1.18,1.18l-7.66,3.05c-1.72.68-3.43-1.02-2.74-2.74M848.77,510.42l-7.66-3.05c-.54-.21-.97-.64-1.18-1.18l-3.04-7.65c-.69-1.72,1.02-3.43,2.74-2.74l7.65,3.04c.54.22.97.64,1.18,1.18l3.05,7.65c.68,1.72-1.02,3.43-2.74,2.74M861.74,484l-7.57,3.26c-.53.23-1.14.23-1.67,0l-7.57-3.26c-1.7-.73-1.7-3.14,0-3.88l7.57-3.26c.53-.23,1.14-.23,1.67,0l7.57,3.26c1.7.73,1.7,3.15,0,3.88" style="fill:#5f2300;"/></g></g></svg>