<?xml version="1.0" encoding="UTF-8"?><svg xmlns="http://www.w3.org/2000/svg" viewBox="0 0 777 292.14"><rect width="777" height="292.14" style="fill:#fff;"/><g id="Layer_1"><path d="M120.46,28.46S22.06,65.12,22.06,193.83c.8.74,1.62,1.45,2.45,2.16.11.09.22.19.33.28.79.67,1.6,1.32,2.42,1.97.15.12.3.24.45.35.81.63,1.64,1.25,2.47,1.86.14.11.29.21.43.31.86.62,1.73,1.23,2.62,1.83.08.06.17.11.25.16.88.59,1.76,1.16,2.65,1.73.09.06.18.12.27.17.9.57,1.81,1.12,2.73,1.66.16.1.33.19.49.29.89.52,1.8,1.03,2.7,1.53.18.1.36.2.54.3.92.5,1.84.99,2.77,1.47.15.08.3.15.44.23.95.48,1.9.96,2.86,1.42.05.02.09.05.14.07.97.47,1.95.92,2.93,1.37.16.07.32.15.48.22.94.43,1.88.84,2.83,1.24.2.09.39.17.59.25.94.4,1.88.79,2.82,1.16.19.08.37.15.56.22.97.39,1.93.76,2.9,1.13.11.04.22.08.33.12.94.35,1.88.7,2.82,1.03.13.05.25.09.38.14.96.34,1.92.67,2.87,1,.19.06.38.13.57.19.93.31,1.86.62,2.79.91.19.06.39.12.58.18.94.3,1.87.58,2.79.86.15.04.3.09.44.13.94.28,1.88.55,2.81.82.05.01.09.03.14.04.96.27,1.91.53,2.86.79.14.04.29.08.43.12.91.24,1.81.47,2.71.7.16.04.32.08.49.12.89.22,1.77.44,2.65.65.14.03.27.06.41.1.91.21,1.8.42,2.69.62.04,0,.08.02.12.03.9.2,1.79.39,2.67.58.06.01.12.03.18.04.87.18,1.72.35,2.56.52.1.02.2.04.3.06.83.16,1.64.32,2.43.46.09.02.18.03.27.05.82.15,1.62.29,2.4.42.03,0,.05.01.08.01,1.65.28,3.21.53,4.69.74.01,0,.03,0,.04,0,.74.11,1.45.21,2.13.3.02,0,.04,0,.06,0,2.09.28,3.97.49,5.58.64v34.88c0,.37.47.66,1.04.66h9.95c.58,0,1.04-.3,1.04-.66v-34.88c1.08-.1,2.28-.23,3.58-.38,0,0,0,0,.01,0,.63-.08,1.29-.16,1.97-.25.04,0,.07-.01.11-.01.68-.09,1.37-.19,2.09-.29.03,0,.06,0,.09-.01,1.46-.21,3-.46,4.62-.73.04,0,.09-.01.13-.02.77-.13,1.55-.27,2.35-.41.11-.02.22-.04.32-.06.78-.14,1.58-.29,2.39-.45.12-.02.23-.05.35-.07.83-.16,1.66-.33,2.52-.51.08-.02.16-.03.24-.05.85-.18,1.71-.36,2.59-.56.06-.01.11-.02.17-.04.87-.2,1.76-.4,2.65-.61.15-.03.29-.07.44-.1.86-.2,1.73-.42,2.62-.64.18-.04.35-.09.53-.13.88-.22,1.77-.45,2.67-.69.16-.04.31-.08.47-.13.94-.25,1.88-.51,2.83-.78.06-.02.12-.03.18-.05.92-.26,1.84-.53,2.77-.81.15-.05.31-.09.46-.14.92-.28,1.85-.56,2.78-.86.2-.06.39-.12.59-.19.92-.3,1.85-.6,2.78-.91.19-.06.38-.13.57-.19.95-.32,1.91-.65,2.86-.99.13-.05.26-.1.39-.14.93-.33,1.87-.68,2.8-1.03.11-.04.22-.08.33-.12.97-.37,1.93-.74,2.89-1.13.19-.07.37-.15.56-.22.94-.38,1.88-.77,2.81-1.16.2-.08.4-.17.59-.25.94-.4,1.89-.82,2.83-1.24.16-.07.32-.15.49-.22.98-.45,1.96-.9,2.94-1.37.04-.02.08-.04.12-.06.96-.46,1.92-.94,2.87-1.43.15-.07.29-.15.44-.22.93-.48,1.85-.97,2.77-1.47.18-.1.36-.2.54-.3.91-.5,1.81-1.01,2.71-1.54.16-.1.33-.19.49-.29.92-.54,1.83-1.09,2.74-1.66.09-.06.18-.11.27-.17.9-.57,1.78-1.14,2.66-1.73.08-.05.16-.11.24-.16.89-.6,1.76-1.21,2.62-1.83.14-.1.29-.21.43-.31.84-.61,1.66-1.23,2.48-1.86.15-.12.3-.23.45-.35.82-.64,1.63-1.3,2.42-1.97.11-.09.22-.19.33-.28.83-.71,1.65-1.43,2.45-2.16,0-128.72-98.4-165.37-98.4-165.37M161.05,64.28l-13.62,22.78c-3.03-3.56-5.99-6.64-8.79-9.29l22.41-13.49ZM102.27,77.77c-2.8,2.65-5.77,5.73-8.79,9.29l-13.62-22.78,22.41,13.49ZM57.85,194.86l-27.8-7.96,28.46-6.1c-.35,4.52-.57,9.21-.67,14.06M60.16,166.02l-26.5-12.23,29.01-1.67c-.97,4.42-1.81,9.06-2.51,13.9M66.4,137.9l-23.51-16.6,28.13,3.53c-1.65,4.1-3.2,8.46-4.62,13.07M77.31,111.19l-18.98-20.27,25.74,8.77c-2.31,3.52-4.58,7.35-6.76,11.5M114.44,208.46h0v8.59c-2.35-.25-5.33-.63-8.79-1.19h0c-1.73-.28-3.57-.6-5.52-.97,0,0,0,0-.01,0-1.29-.25-2.63-.51-4.01-.8-.01,0-.02,0-.03,0-2.05-.43-4.18-.91-6.38-1.44-.04-.01-.09-.02-.13-.03-1.46-.35-2.96-.73-4.47-1.14,0,0,0,0,0,0-.46-.41-.91-.82-1.35-1.25,0-40.84,23.18-68.98,32.7-78.81-1.09,17.73-1.97,42.69-2,77.06M113.83,68.32l6.63-26.5,6.62,26.5c-4.07-2.82-6.62-4.05-6.62-4.05,0,0-2.55,1.23-6.63,4.05M155.82,211.47c-1.52.4-3.02.79-4.49,1.14-.03,0-.06.02-.1.02-2.21.54-4.35,1.02-6.41,1.45t0,0c-3.45.72-6.67,1.31-9.55,1.78h0c-3.46.56-6.44.95-8.79,1.19v-8.59h0c-.03-34.37-.92-59.33-2-77.06,9.52,9.84,32.7,37.98,32.7,78.81-.44.43-.89.84-1.35,1.25M163.6,111.19c-2.18-4.16-4.45-7.98-6.76-11.5l25.74-8.77-18.98,20.27ZM174.51,137.9c-1.42-4.61-2.96-8.97-4.62-13.07l28.13-3.53-23.51,16.6ZM180.75,166.02c-.7-4.84-1.54-9.48-2.51-13.9l29.01,1.67-26.5,12.23ZM183.06,194.86c-.09-4.85-.32-9.53-.67-14.06l28.46,6.1-27.8,7.96Z" style="fill:#0094a2;"/><path d="M381.56,95.79l5.68-11.27c6.12,3.93,12.58,6.11,18.61,6.11,6.9,0,11.18-2.53,11.18-7.34,0-3.93-2.62-6.46-11.18-7.51-15.38-1.75-22.54-7.42-22.54-17.64,0-11.53,9.61-19.04,23.59-19.04,7.95,0,14.24,1.4,21.75,5.42l-5.15,10.83c-5.68-3.06-11.18-4.45-16.08-4.45-6.29,0-10.13,2.53-10.13,6.64s3.41,5.59,11.27,6.64c15.46,2.1,22.63,8.56,22.63,19.04,0,11.97-10.05,19.83-25.16,19.83-9,0-17.21-2.27-24.46-7.25" style="fill:#0094a2;"/><path d="M366.29,67.76h-6.8l4.77-4.77-1.39-3.25h-6.73l4.72-4.72-1.41-3.3h-6.66l4.67-4.67-2.8-6.55h-15.03l-26.3,61.14h15.11l4.63-11.18h27.61l4.63,11.18h15.46l-14.48-33.89ZM337.53,78.5l5.59-14.94c1.92-5.33,3.06-8.21,3.67-10.13h.26c.52,1.74,1.57,4.72,3.49,9.78l5.59,15.28h-18.61Z" style="fill:#0094a2;"/><path d="M639.3,67.76h-6.8l4.77-4.77-1.39-3.25h-6.73l4.72-4.72-1.41-3.3h-6.66l4.67-4.67-2.8-6.55h-15.03l-26.3,61.14h15.11l4.63-11.18h27.61l4.63,11.18h15.46l-14.48-33.89ZM610.53,78.5l5.59-14.94c1.92-5.33,3.06-8.21,3.67-10.13h.26c.52,1.74,1.57,4.72,3.49,9.78l5.59,15.28h-18.61Z" style="fill:#0094a2;"/><path d="M561,70.38l25.95-29.87h-17.47l-12.84,15.02c-3.23,4.02-6.12,7.6-7.78,10.04l-.35-.09c.35-3.14.7-7.95.7-12.49v-12.49h-14.15v2.7l4.32,2.77-4.32,2.77v4.64l4.32,2.77-4.32,2.77v4.64l4.32,2.77-4.32,2.77v4.64l4.32,2.77-4.32,2.77v4.64l4.32,2.77-4.32,2.77v4.64l4.32,2.77-4.32,2.77v2.05h14.15v-13.19c0-4.54-.35-9.35-.7-12.4l.35-.18c1.57,2.53,4.28,6.03,7.43,9.7l14.5,16.07h18.61l-28.39-31.27Z" style="fill:#0094a2;"/><polygon points="437 40.51 437 73.72 441.32 76.49 437 79.25 437 83.89 441.32 86.66 437 89.42 437 94.06 441.32 96.83 437 99.6 437 101.65 451.33 101.65 451.33 40.51 437 40.51" style="fill:#0094a2;"/><polygon points="461.6 40.51 461.6 101.65 475.93 101.65 475.93 76.55 502.4 76.55 502.4 67.18 502.4 66.35 502.4 61.58 494.78 67.18 494.72 67.18 494.72 60.36 485.44 67.18 485.38 67.18 485.38 60.36 476.09 67.18 475.93 67.18 475.93 50.04 476.09 50.04 485.38 56.86 485.38 50.04 485.44 50.04 494.72 56.86 494.72 50.04 494.78 50.04 504.06 56.86 504.06 50.88 504.06 50.04 504.06 50 504.06 40.51 461.6 40.51" style="fill:#0094a2;"/><path d="M294.72,40.51h-26.91v2.7l4.32,2.77-4.32,2.77v4.64l4.32,2.77-4.32,2.77v4.64l4.32,2.77-4.32,2.77v4.64l4.32,2.77-4.32,2.77v4.64l4.32,2.77-4.32,2.77v4.64l4.32,2.77-4.32,2.77v2.05h14.33v-17.29h12.58c14.94,0,23.33-9.17,23.33-22.1s-8.39-21.75-23.33-21.75M294.98,71.76v-9.41l-9.41,9.41v-18.83l9.41,9.41v-9.41l9.41,9.41-9.41,9.41Z" style="fill:#0094a2;"/><polygon points="526.79 88.23 519.63 88.23 526.79 95.45 526.79 88.23" style="fill:#0094a2;"/><polygon points="526.79 102.15 526.79 95.46 519.63 95.46 526.27 102.15 526.79 102.15" style="fill:#0094a2;"/><polygon points="519.63 95.46 512.47 95.46 519.63 88.23 512.47 88.23 519.63 81.01 526.79 88.22 526.79 40.51 512.46 40.51 512.46 102.15 512.99 102.15 519.63 95.46" style="fill:#0094a2;"/><path d="M369.53,170.57l5.71-11.33c6.15,3.95,12.65,6.15,18.71,6.15,6.94,0,11.24-2.55,11.24-7.38,0-3.95-2.63-6.5-11.24-7.55-15.46-1.76-22.66-7.46-22.66-17.74,0-11.59,9.66-19.14,23.72-19.14,7.99,0,14.32,1.41,21.87,5.45l-5.18,10.89c-5.71-3.07-11.24-4.48-16.16-4.48-6.33,0-10.19,2.54-10.19,6.67s3.43,5.62,11.33,6.67c15.55,2.11,22.75,8.61,22.75,19.14,0,12.03-10.1,19.93-25.3,19.93-9.05,0-17.3-2.28-24.59-7.29" style="fill:#ff0d2a;"/><path d="M496.81,114.99h15.63l10.19,26.61c2.9,7.73,5.45,16.07,6.24,19.58h.35c.79-3.51,2.72-10.62,6.15-19.67l10.19-26.52h15.28l-24.77,61.47h-14.49l-24.77-61.47Z" style="fill:#ff0d2a;"/><path d="M666.87,170.57l5.71-11.33c6.15,3.95,12.65,6.15,18.71,6.15,6.94,0,11.24-2.55,11.24-7.38,0-3.95-2.63-6.5-11.24-7.55-15.46-1.76-22.66-7.46-22.66-17.74,0-11.59,9.66-19.14,23.72-19.14,7.99,0,14.32,1.41,21.87,5.45l-5.18,10.89c-5.71-3.07-11.24-4.48-16.16-4.48-6.33,0-10.19,2.54-10.19,6.67s3.43,5.62,11.33,6.67c15.55,2.11,22.75,8.61,22.75,19.14,0,12.03-10.1,19.93-25.3,19.93-9.05,0-17.3-2.28-24.59-7.29" style="fill:#ff0d2a;"/><path d="M599.86,142.57h-6.86l4.81-4.81-1.37-3.21h-6.79l4.76-4.76-1.39-3.26h-6.72l4.71-4.71-2.92-6.83h-15.11l-26.44,61.47h15.2l4.66-11.24h27.76l4.65,11.24h15.55l-14.48-33.89ZM570.86,153.19l5.62-15.01c1.93-5.36,3.07-8.26,3.69-10.19h.26c.53,1.76,1.58,4.74,3.51,9.83l5.62,15.37h-18.71Z" style="fill:#ff0d2a;"/><polygon points="333.08 164.34 333.08 151.08 361.62 151.08 361.62 139.49 333.08 139.49 333.08 125.08 363.29 125.08 363.29 114.99 319.11 114.99 319.11 117.53 323.43 120.29 319.11 123.06 319.11 127.7 323.43 130.46 319.11 133.23 319.11 137.87 323.43 140.64 319.11 143.4 319.11 148.04 323.43 150.81 319.11 153.57 319.11 158.21 323.43 160.98 319.11 163.75 319.11 168.38 323.43 171.15 319.11 173.92 319.11 176.45 364.26 176.45 364.26 164.34 333.08 164.34" style="fill:#ff0d2a;"/><polygon points="633.67 164.07 633.67 114.99 619.26 114.99 619.26 117.52 623.59 120.29 619.26 123.06 619.26 127.7 623.59 130.46 619.26 133.23 619.26 137.87 623.59 140.63 619.26 143.4 619.26 148.04 623.59 150.81 619.26 153.57 619.26 158.21 623.59 160.98 619.26 163.75 619.26 168.38 623.59 171.15 619.26 173.92 619.26 176.46 664.32 176.46 664.32 164.07 633.67 164.07" style="fill:#ff0d2a;"/><polygon points="420.3 114.99 420.3 127.11 438.84 127.11 438.84 144.77 443.02 147.45 438.84 150.13 438.84 154.94 443.02 157.62 438.84 160.3 438.84 165.12 443.02 167.79 438.84 170.47 438.84 176.46 453.15 176.46 453.15 127.11 471.86 127.11 471.86 114.99 420.3 114.99" style="fill:#ff0d2a;"/><polygon points="267.92 115.15 267.92 176.29 282.25 176.29 282.25 151.19 308.72 151.19 308.72 141.83 308.72 140.99 308.72 136.23 301.1 141.83 301.04 141.83 301.04 135.01 291.76 141.83 291.7 141.83 291.7 135.01 282.41 141.83 282.25 141.83 282.25 124.69 282.41 124.69 291.7 131.51 291.7 124.69 291.76 124.69 301.04 131.51 301.04 124.69 301.1 124.69 310.38 131.51 310.38 125.52 310.38 124.69 310.38 124.64 310.38 115.15 267.92 115.15" style="fill:#ff0d2a;"/><polygon points="492.12 162.61 484.96 162.61 492.12 169.77 492.12 162.61" style="fill:#f7192e;"/><polygon points="492.12 176.42 492.12 169.78 484.96 169.78 491.6 176.42 492.12 176.42" style="fill:#f7192e;"/><polygon points="484.96 169.78 477.8 169.78 484.96 162.62 477.8 162.62 484.96 155.45 492.12 162.61 492.12 115.28 477.79 115.28 477.79 176.42 478.32 176.42 484.96 169.78" style="fill:#f7192e;"/><path d="M318.65,219.04h-6.8l4.77-4.77-1.39-3.25h-6.73l4.72-4.72-1.41-3.3h-6.66l4.67-4.67-2.8-6.55h-15.03l-26.3,61.14h15.11l4.63-11.18h27.61l4.63,11.18h15.46l-14.48-33.89ZM289.88,229.78l5.59-14.94c1.92-5.33,3.06-8.21,3.67-10.13h.26c.52,1.74,1.57,4.72,3.49,9.78l5.59,15.28h-18.61Z" style="fill:#ffae00;"/><path d="M555.32,219.04h-6.8l4.77-4.77-1.39-3.25h-6.73l4.72-4.72-1.41-3.3h-6.66l4.67-4.67-2.8-6.55h-15.03l-26.3,61.14h15.11l4.63-11.18h27.61l4.63,11.18h15.46l-14.48-33.89ZM526.55,229.78l5.59-14.94c1.92-5.33,3.06-8.21,3.67-10.13h.26c.52,1.74,1.57,4.72,3.49,9.78l5.59,15.28h-18.61Z" style="fill:#ffae00;"/><path d="M746.1,219.04h-6.8l4.77-4.77-1.39-3.25h-6.73l4.72-4.72-1.41-3.3h-6.66l4.67-4.67-2.8-6.55h-15.03l-26.3,61.14h15.11l4.63-11.18h27.61l4.63,11.18h15.46l-14.48-33.89ZM717.33,229.78l5.59-14.94c1.92-5.33,3.06-8.21,3.67-10.13h.26c.52,1.74,1.57,4.72,3.49,9.78l5.59,15.28h-18.61Z" style="fill:#ffae00;"/><polygon points="467.32 240.98 467.32 227.72 495.87 227.72 495.87 216.12 467.32 216.12 467.32 201.72 497.54 201.72 497.54 191.63 453.36 191.63 453.36 194.16 457.68 196.93 453.36 199.7 453.36 204.34 457.68 207.1 453.36 209.87 453.36 214.51 457.68 217.27 453.36 220.04 453.36 224.68 457.68 227.45 453.36 230.21 453.36 234.85 457.68 237.62 453.36 240.38 453.36 245.02 457.68 247.79 453.36 250.56 453.36 253.09 498.51 253.09 498.51 240.98 467.32 240.98" style="fill:#ffae00;"/><polygon points="397.18 191.63 397.18 203.74 415.71 203.74 415.71 221.41 419.89 224.09 415.71 226.76 415.71 231.58 419.89 234.26 415.71 236.94 415.71 241.75 419.89 244.43 415.71 247.11 415.71 253.09 430.03 253.09 430.03 203.74 448.74 203.74 448.74 191.63 397.18 191.63" style="fill:#ffae00;"/><path d="M595.94,232.78h-8.18v20.23h-14.12v-61.3h29.37c13.18,0,21.7,8.41,21.7,20.75,0,9.37-4.91,16.29-13.69,19.09l17.05,21.46h-16.79l-15.33-20.23ZM601.37,203.97h-13.69v17.25h13.69c6.03,0,9.39-3.06,9.39-8.58s-3.36-8.67-9.39-8.67" style="fill:#ffae00;"/><polygon points="584.86 250.28 576.66 250.28 576.66 226.62 578.03 246.5 579.4 229.41 580.76 246.5 582.13 229.41 583.49 246.5 584.86 226.62 584.86 250.28" style="fill:#ffae00;"/><path d="M667.71,190.59l-5.58,5.57-5.59-5.59c-16.47,2.18-26.93,14.23-26.93,31.78s10.45,29.59,26.93,31.78l5.59-5.59,5.58,5.57c16.43-2.21,26.85-14.25,26.85-31.77s-10.42-29.56-26.85-31.77M662.09,241.71c-11.02,0-18.26-7.71-18.26-19.35s7.23-19.35,18.26-19.35,18.34,7.71,18.34,19.35-7.32,19.35-18.34,19.35" style="fill:#ffae00;"/><path d="M391.09,222.36l5.31-5.31c-2.14-16.41-14.34-26.83-32.13-26.83s-29.99,10.42-32.13,26.83l5.3,5.31-5.3,5.31c2.14,16.41,14.34,26.83,32.13,26.83s29.99-10.42,32.13-26.83l-5.31-5.31ZM364.26,241.71c-11.02,0-18.26-7.71-18.26-19.35s7.23-19.35,18.26-19.35,18.34,7.71,18.34,19.35-7.32,19.35-18.34,19.35" style="fill:#ffae00;"/><polygon points="373.82 231.88 373.82 222.36 364.3 222.36 373.82 231.88" style="fill:#ffae00;"/><polygon points="354.78 231.88 364.3 231.88 364.3 222.36 354.78 231.88" style="fill:#ffae00;"/><polygon points="354.78 212.84 354.78 222.36 364.3 222.36 354.78 212.84" style="fill:#ffae00;"/><polygon points="373.82 212.84 364.3 212.84 364.3 222.36 373.82 212.84" style="fill:#ffae00;"/><polygon points="671.61 231.88 671.61 222.36 662.09 222.36 671.61 231.88" style="fill:#ffae00;"/><polygon points="652.57 231.88 662.09 231.88 662.09 222.36 652.57 231.88" style="fill:#ffae00;"/><polygon points="652.57 212.84 652.57 222.36 662.09 222.36 652.57 212.84" style="fill:#ffae00;"/><polygon points="671.61 212.84 662.09 212.84 662.09 222.36 671.61 212.84" style="fill:#ffae00;"/></g></svg>