<?xml version="1.0" encoding="UTF-8"?><svg id="Layer_1" xmlns="http://www.w3.org/2000/svg" viewBox="0 0 1920 1080"><rect width="1920" height="1080" style="fill:#f7e8d7;"/><path d="M351.39,530.25c-25.79-12.69-56.46,11.33-55.78,38.97.91,35.81,36.02,42.17,56.07,14.78,3.77-3.92,8.35-7.88,11.62-12.3,10.75-13.85,4.2-34.52-11.44-41.22l-.47-.22Z" style="fill:#f7e8d7;"/><path d="M333.05,930.72c0,24.59,19.93,44.52,44.52,44.52v-44.52h-44.52Z" style="fill:#f0dfcc;"/><path d="M333.05,930.72c-24.59,0-44.52,19.93-44.52,44.52h44.52v-44.52Z" style="fill:#f0dfcc;"/><path d="M333.05,930.72c0-24.59-19.93-44.52-44.52-44.52v44.52h44.52Z" style="fill:#f0dfcc;"/><path d="M333.05,930.72c24.59,0,44.52-19.93,44.52-44.52h-44.52v44.52Z" style="fill:#f0dfcc;"/><polygon points="182 886.2 137.48 930.72 182 975.24 182 886.2" style="fill:#f0dfcc;"/><polygon points="137.48 930.72 137.48 886.2 92.96 930.72 137.48 975.24 137.48 930.72" style="fill:#f0dfcc;"/><polygon points="92.96 930.72 92.96 886.2 48.43 930.72 92.96 975.24 92.96 930.72" style="fill:#f0dfcc;"/><polygon points="3.91 930.72 48.44 975.24 48.44 930.72 48.44 886.2 3.91 930.72" style="fill:#f0dfcc;"/><path d="M220.08,938.29c-4.03,2.74-8.05,6.05-11.89,9.88-8.75,8.75-14.81,18.5-17.45,27.07,8.57-2.65,18.32-8.7,27.07-17.45,3.83-3.83,7.15-7.85,9.89-11.89,1.27,11.37,3.94,21.48,7.57,29.34,3.63-7.86,6.29-17.97,7.57-29.34,2.74,4.03,6.05,8.05,9.89,11.89,8.75,8.75,18.5,14.81,27.07,17.45-2.65-8.57-8.7-18.32-17.45-27.07-3.83-3.83-7.86-7.15-11.89-9.89,11.37-1.27,21.48-3.94,29.34-7.57-7.86-3.63-17.97-6.29-29.34-7.57,4.03-2.74,8.05-6.05,11.89-9.89,8.75-8.75,14.8-18.49,17.45-27.07-8.57,2.65-18.32,8.7-27.07,17.45-3.83,3.83-7.15,7.86-9.89,11.89-1.27-11.37-3.94-21.48-7.57-29.34-3.63,7.86-6.29,17.97-7.57,29.34-2.74-4.03-6.05-8.05-9.89-11.89-8.75-8.75-18.5-14.81-27.07-17.45,2.65,8.57,8.7,18.32,17.45,27.07,3.83,3.83,7.85,7.15,11.89,9.89-11.37,1.27-21.48,3.94-29.34,7.57,7.86,3.63,17.97,6.29,29.34,7.57" style="fill:#f0dfcc;"/><path d="M149.74,1033.72s0-.02,0-.03,0-.02,0-.03c9.64-.27,19.96-4.63,28.16-12.84,9.18-9.18,13.57-21,12.78-31.56-10.56-.8-22.38,3.59-31.56,12.77-8.21,8.21-12.57,18.53-12.84,28.16,0,0-.02,0-.03,0s-.02,0-.03,0c-.27-9.64-4.63-19.96-12.84-28.16-9.18-9.18-21-13.57-31.56-12.77-.8,10.56,3.59,22.38,12.78,31.56,8.21,8.21,18.52,12.57,28.16,12.84,0,0,0,.02,0,.03s0,.02,0,.03c-9.64.27-19.96,4.63-28.16,12.84-9.18,9.18-13.57,21-12.78,31.56,10.56.8,22.38-3.59,31.56-12.77,8.21-8.21,12.57-18.52,12.84-28.16,0,0,.02,0,.03,0s.02,0,.03,0c.27,9.64,4.63,19.95,12.84,28.16,9.18,9.18,21.01,13.57,31.56,12.77.79-10.56-3.59-22.38-12.78-31.56-8.21-8.21-18.52-12.57-28.16-12.84" style="fill:#f0dfcc;"/><polygon points="244.04 1033.7 267.98 1057.64 267.98 1009.76 244.04 1033.7" style="fill:#f0dfcc;"/><polygon points="220.1 1009.76 220.1 1057.64 244.04 1033.7 220.1 1009.76" style="fill:#f0dfcc;"/><path d="M288.3,989.18h-88.78v89.04h89.04v-89.04h-.26ZM267.98,1057.64h-47.88l-20.32,20.32v-88.52l20.32,20.32h47.88l20.32-20.32v88.52l-20.32-20.32Z" style="fill:#f0dfcc;"/><polygon points="333.08 1033.7 309.14 1057.64 357.02 1057.64 333.08 1033.7" style="fill:#f0dfcc;"/><polygon points="357.02 1009.76 309.14 1009.76 333.08 1033.7 357.02 1009.76" style="fill:#f0dfcc;"/><path d="M377.6,1077.96v-88.78h-89.04v89.04h89.04v-.26ZM309.14,1057.64h0v-47.88l-20.32-20.32h88.52l-20.32,20.32h0v47.88l20.32,20.32h-88.52l20.32-20.32Z" style="fill:#f0dfcc;"/><path d="M474.74,1032.1l-11.54-11.79-.18-16.5c-.01-1.24-1.02-2.25-2.26-2.26l-16.5-.18-11.79-11.54c-.89-.87-2.31-.87-3.2,0l-11.79,11.54-16.5.18c-1.24.01-2.25,1.02-2.26,2.26l-.18,16.5-11.54,11.79c-.87.89-.87,2.31,0,3.2l11.54,11.79.18,16.5c.01,1.25,1.02,2.25,2.26,2.26l16.5.18,11.79,11.54c.89.87,2.31.87,3.2,0l11.79-11.54,16.5-.18c1.24-.01,2.25-1.02,2.26-2.26l.18-16.5,11.54-11.79c.87-.89.87-2.31,0-3.2" style="fill:#f0dfcc;"/><polygon points="70.7 1078.22 92.96 989.18 48.44 989.18 70.7 1078.22" style="fill:#f0dfcc;"/><polygon points="26.17 1078.22 48.44 989.18 3.91 989.18 26.17 1078.22" style="fill:#f0dfcc;"/><path d="M388.93,930.72l-2.31,8.06c-.73,2.53,0,5.26,1.9,7.09l6.03,5.82,2.03,8.13c.64,2.56,2.63,4.55,5.19,5.19l8.13,2.03,5.82,6.03c1.83,1.9,4.56,2.63,7.09,1.9l8.06-2.31,8.06,2.31c2.53.73,5.26,0,7.09-1.9l5.82-6.03,8.13-2.03c2.56-.64,4.55-2.63,5.19-5.19l2.03-8.13,6.03-5.82c1.9-1.83,2.63-4.56,1.9-7.09l-2.31-8.06,2.31-8.06c.73-2.53,0-5.26-1.9-7.09l-6.03-5.82-2.03-8.13c-.64-2.56-2.63-4.55-5.19-5.19l-8.13-2.03-5.82-6.03c-1.83-1.89-4.56-2.63-7.09-1.9l-8.06,2.31-8.06-2.31c-2.53-.73-5.26,0-7.09,1.9l-5.82,6.03-8.13,2.03c-2.56.64-4.55,2.63-5.19,5.19l-2.03,8.13-6.03,5.82c-1.9,1.83-2.63,4.56-1.9,7.09l2.31,8.06Z" style="fill:#f0dfcc;"/><path d="M813.28,930.72c0,24.59,19.93,44.52,44.52,44.52v-44.52h-44.52Z" style="fill:#f0dfcc;"/><path d="M813.28,930.72c-24.59,0-44.52,19.93-44.52,44.52h44.52v-44.52Z" style="fill:#f0dfcc;"/><path d="M813.28,930.72c0-24.59-19.93-44.52-44.52-44.52v44.52h44.52Z" style="fill:#f0dfcc;"/><path d="M813.28,930.72c24.59,0,44.52-19.93,44.52-44.52h-44.52v44.52Z" style="fill:#f0dfcc;"/><polygon points="662.22 886.2 617.7 930.72 662.22 975.24 662.22 886.2" style="fill:#f0dfcc;"/><polygon points="617.7 930.72 617.7 886.2 573.18 930.72 617.7 975.24 617.7 930.72" style="fill:#f0dfcc;"/><polygon points="573.18 930.72 573.18 886.2 528.66 930.72 573.18 975.24 573.18 930.72" style="fill:#f0dfcc;"/><polygon points="484.14 930.72 528.66 975.24 528.66 930.72 528.66 886.2 484.14 930.72" style="fill:#f0dfcc;"/><path d="M700.31,938.29c-4.03,2.74-8.05,6.05-11.89,9.89-8.75,8.75-14.81,18.5-17.45,27.07,8.57-2.65,18.32-8.7,27.07-17.45,3.83-3.83,7.15-7.85,9.89-11.89,1.27,11.37,3.94,21.48,7.57,29.34,3.63-7.86,6.29-17.97,7.57-29.34,2.74,4.03,6.05,8.05,9.89,11.89,8.75,8.75,18.5,14.81,27.07,17.45-2.65-8.57-8.7-18.32-17.45-27.07-3.83-3.83-7.85-7.15-11.89-9.89,11.37-1.27,21.48-3.94,29.34-7.57-7.86-3.63-17.97-6.29-29.34-7.57,4.03-2.74,8.05-6.05,11.89-9.89,8.75-8.75,14.81-18.5,17.45-27.07-8.57,2.65-18.32,8.7-27.07,17.45-3.83,3.83-7.15,7.85-9.89,11.89-1.27-11.37-3.94-21.48-7.57-29.34-3.63,7.86-6.29,17.97-7.57,29.34-2.74-4.03-6.05-8.05-9.89-11.89-8.75-8.75-18.49-14.81-27.07-17.45,2.65,8.57,8.7,18.32,17.45,27.07,3.83,3.83,7.86,7.15,11.89,9.89-11.37,1.27-21.48,3.94-29.34,7.57,7.86,3.63,17.97,6.29,29.34,7.57" style="fill:#f0dfcc;"/><path d="M629.96,1033.72s0-.02,0-.03,0-.02,0-.03c9.64-.27,19.96-4.63,28.16-12.84,9.18-9.18,13.57-21.01,12.78-31.56-10.56-.79-22.38,3.59-31.56,12.78-8.21,8.21-12.57,18.52-12.84,28.16,0,0-.02,0-.03,0s-.02,0-.03,0c-.27-9.64-4.63-19.95-12.84-28.16-9.18-9.18-21-13.57-31.56-12.78-.8,10.56,3.59,22.38,12.77,31.56,8.21,8.21,18.52,12.57,28.16,12.84,0,0,0,.02,0,.03s0,.02,0,.03c-9.64.27-19.96,4.63-28.16,12.84-9.18,9.18-13.57,21-12.78,31.56,10.56.79,22.38-3.59,31.56-12.78,8.21-8.21,12.57-18.53,12.84-28.16,0,0,.02,0,.03,0s.02,0,.03,0c.27,9.64,4.63,19.95,12.84,28.16,9.18,9.18,21.01,13.57,31.56,12.78.79-10.56-3.59-22.38-12.78-31.56-8.21-8.21-18.52-12.57-28.16-12.84" style="fill:#f0dfcc;"/><polygon points="724.26 1033.7 748.2 1057.64 748.2 1009.76 724.26 1033.7" style="fill:#f0dfcc;"/><polygon points="700.32 1009.76 700.32 1057.64 724.26 1033.7 700.32 1009.76" style="fill:#f0dfcc;"/><path d="M768.52,989.18h-88.78v89.04h89.04v-89.04h-.26ZM748.2,1057.64h-47.88l-20.32,20.32v-88.52l20.32,20.32h47.88l20.32-20.32v88.52l-20.32-20.32Z" style="fill:#f0dfcc;"/><polygon points="813.3 1033.7 789.37 1057.64 837.24 1057.64 813.3 1033.7" style="fill:#f0dfcc;"/><polygon points="837.24 1009.76 789.37 1009.76 813.3 1033.7 837.24 1009.76" style="fill:#f0dfcc;"/><path d="M857.82,1077.96v-88.78h-89.04v89.04h89.04v-.26ZM789.37,1057.64h0v-47.88l-20.32-20.32h88.52l-20.32,20.32h0v47.88l20.32,20.32h-88.52l20.32-20.32Z" style="fill:#f0dfcc;"/><path d="M954.96,1032.1l-11.54-11.79-.18-16.5c-.01-1.24-1.02-2.25-2.26-2.26l-16.5-.18-11.79-11.54c-.89-.87-2.31-.87-3.2,0l-11.79,11.54-16.49.18c-1.25.01-2.25,1.02-2.26,2.26l-.18,16.5-11.54,11.79c-.87.89-.87,2.31,0,3.2l11.54,11.79.18,16.5c.01,1.24,1.02,2.25,2.26,2.26l16.5.18,11.79,11.54c.89.87,2.31.87,3.2,0l11.79-11.54,16.5-.18c1.24-.01,2.25-1.02,2.26-2.26l.18-16.5,11.54-11.79c.87-.89.87-2.31,0-3.2" style="fill:#f0dfcc;"/><polygon points="550.92 1078.22 573.18 989.18 528.66 989.18 550.92 1078.22" style="fill:#f0dfcc;"/><polygon points="506.4 1078.22 528.66 989.18 484.14 989.18 506.4 1078.22" style="fill:#f0dfcc;"/><path d="M869.16,930.72l-2.31,8.06c-.73,2.53,0,5.26,1.9,7.09l6.03,5.82,2.03,8.13c.64,2.56,2.63,4.55,5.19,5.19l8.13,2.03,5.82,6.03c1.83,1.89,4.56,2.63,7.09,1.9l8.06-2.31,8.05,2.31c2.53.73,5.26,0,7.09-1.9l5.82-6.03,8.13-2.03c2.56-.64,4.55-2.63,5.19-5.19l2.03-8.13,6.03-5.82c1.89-1.83,2.63-4.56,1.9-7.09l-2.31-8.06,2.31-8.06c.73-2.53,0-5.26-1.9-7.09l-6.03-5.82-2.03-8.13c-.64-2.56-2.63-4.55-5.19-5.19l-8.13-2.03-5.82-6.03c-1.83-1.9-4.56-2.63-7.09-1.9l-8.06,2.31-8.06-2.31c-2.53-.73-5.26,0-7.09,1.9l-5.82,6.03-8.13,2.03c-2.56.64-4.55,2.63-5.19,5.19l-2.03,8.13-6.03,5.82c-1.9,1.83-2.63,4.56-1.9,7.09l2.31,8.06Z" style="fill:#f0dfcc;"/><polygon points="1564.69 886.2 1542.42 975.25 1586.94 975.25 1564.69 886.2" style="fill:#f0dfcc;"/><polygon points="1609.21 886.2 1586.94 975.25 1631.47 975.25 1609.21 886.2" style="fill:#f0dfcc;"/><polygon points="1738 886.2 1887.61 901.04 1759 915.88 1887.61 930.72 1759 945.56 1887.61 960.41 1738 975.25 1916.09 975.25 1916.09 886.2 1738 886.2" style="fill:#f0dfcc;"/><polygon points="1640.21 886.2 1640.21 930.72 1684.73 930.72 1640.21 886.2" style="fill:#f0dfcc;"/><polygon points="1729.26 886.2 1684.73 886.2 1684.73 930.72 1729.26 886.2" style="fill:#f0dfcc;"/><polygon points="1729.26 975.25 1729.26 930.72 1684.73 930.72 1729.26 975.25" style="fill:#f0dfcc;"/><polygon points="1640.21 975.25 1684.73 975.25 1684.73 930.72 1640.21 975.25" style="fill:#f0dfcc;"/><polygon points="1818.27 1073.03 1818.27 1028.51 1773.75 1028.51 1818.27 1073.03" style="fill:#f0dfcc;"/><polygon points="1773.75 1073.03 1773.75 1028.51 1729.23 1028.51 1773.75 1073.03" style="fill:#f0dfcc;"/><polygon points="1818.27 1028.51 1818.27 983.99 1773.75 983.99 1818.27 1028.51" style="fill:#f0dfcc;"/><polygon points="1773.75 1028.51 1773.75 983.99 1729.23 983.99 1773.75 1028.51" style="fill:#f0dfcc;"/><polygon points="1622.69 983.99 1578.17 983.99 1600.43 1073.03 1622.69 983.99" style="fill:#f0dfcc;"/><polygon points="1578.17 983.99 1533.65 983.99 1555.91 1073.03 1578.17 983.99" style="fill:#f0dfcc;"/><polygon points="1533.65 983.99 1489.13 983.99 1511.39 1073.03 1533.65 983.99" style="fill:#f0dfcc;"/><polygon points="1466.87 1073.03 1489.13 983.99 1444.61 983.99 1466.87 1073.03" style="fill:#f0dfcc;"/><path d="M1634.03,1028.51l-2.31,8.06c-.73,2.53,0,5.26,1.9,7.09l6.03,5.82,2.03,8.13c.64,2.56,2.63,4.55,5.19,5.19l8.13,2.03,5.82,6.03c1.83,1.89,4.56,2.63,7.09,1.9l8.06-2.31,8.06,2.31c2.53.73,5.26,0,7.09-1.9l5.82-6.03,8.13-2.03c2.56-.64,4.55-2.63,5.19-5.19l2.03-8.13,6.03-5.82c1.9-1.83,2.63-4.56,1.9-7.09l-2.31-8.06,2.31-8.06c.73-2.53,0-5.26-1.9-7.09l-6.03-5.82-2.03-8.13c-.64-2.56-2.63-4.55-5.19-5.19l-8.13-2.03-5.82-6.03c-1.83-1.9-4.56-2.63-7.09-1.9l-8.06,2.31-8.06-2.31c-2.53-.73-5.26,0-7.09,1.9l-5.82,6.03-8.13,2.03c-2.56.64-4.55,2.63-5.19,5.19l-2.03,8.13-6.03,5.82c-1.9,1.83-2.63,4.56-1.9,7.09l2.31,8.06Z" style="fill:#f0dfcc;"/><path d="M1533,929.12l-11.54-11.79-.18-16.5c-.01-1.24-1.02-2.25-2.26-2.26l-16.5-.18-11.79-11.54c-.89-.87-2.31-.87-3.2,0l-11.79,11.54-16.49.18c-1.24.01-2.25,1.02-2.26,2.26l-.18,16.5-11.54,11.79c-.87.89-.87,2.31,0,3.2l11.54,11.79.18,16.5c.01,1.25,1.02,2.25,2.26,2.26l16.5.18,11.79,11.54c.89.87,2.31.87,3.2,0l11.79-11.54,16.5-.18c1.24-.01,2.25-1.02,2.26-2.26l.18-16.5,11.54-11.79c.87-.89.87-2.31,0-3.2" style="fill:#f0dfcc;"/><path d="M1856.38,1036.08c-4.03,2.74-8.05,6.05-11.89,9.88-8.75,8.75-14.81,18.5-17.45,27.07,8.57-2.65,18.32-8.7,27.07-17.45,3.83-3.83,7.15-7.85,9.89-11.89,1.27,11.37,3.94,21.48,7.57,29.34,3.63-7.86,6.29-17.97,7.57-29.34,2.74,4.03,6.05,8.05,9.89,11.89,8.75,8.75,18.49,14.8,27.07,17.45-2.65-8.57-8.7-18.32-17.45-27.07-3.83-3.83-7.85-7.15-11.89-9.89,11.37-1.27,21.48-3.94,29.34-7.57-7.86-3.63-17.97-6.29-29.34-7.57,4.03-2.74,8.05-6.05,11.89-9.89,8.75-8.75,14.8-18.49,17.45-27.07-8.57,2.65-18.32,8.7-27.07,17.45-3.83,3.83-7.15,7.86-9.89,11.89-1.27-11.37-3.94-21.48-7.57-29.34-3.63,7.86-6.29,17.97-7.57,29.34-2.74-4.03-6.05-8.05-9.89-11.89-8.75-8.75-18.49-14.81-27.07-17.45,2.65,8.57,8.7,18.32,17.45,27.07,3.83,3.83,7.85,7.15,11.89,9.89-11.37,1.27-21.48,3.94-29.34,7.57,7.86,3.63,17.97,6.29,29.34,7.57" style="fill:#f0dfcc;"/><polygon points="1084.46 886.2 1062.2 975.24 1106.72 975.24 1084.46 886.2" style="fill:#f0dfcc;"/><polygon points="1128.98 886.2 1106.72 975.24 1151.24 975.24 1128.98 886.2" style="fill:#f0dfcc;"/><polygon points="1257.78 886.2 1407.39 901.04 1278.78 915.88 1407.39 930.72 1278.78 945.56 1407.39 960.41 1257.78 975.25 1435.86 975.25 1435.86 886.2 1257.78 886.2" style="fill:#f0dfcc;"/><polygon points="1159.99 886.2 1159.99 930.72 1204.51 930.72 1159.99 886.2" style="fill:#f0dfcc;"/><polygon points="1249.03 886.2 1204.51 886.2 1204.51 930.72 1249.03 886.2" style="fill:#f0dfcc;"/><polygon points="1249.03 975.25 1249.03 930.72 1204.51 930.72 1249.03 975.25" style="fill:#f0dfcc;"/><polygon points="1159.99 975.24 1204.51 975.24 1204.51 930.72 1159.99 975.24" style="fill:#f0dfcc;"/><polygon points="1338.05 1073.03 1338.05 1028.51 1293.53 1028.51 1338.05 1073.03" style="fill:#f0dfcc;"/><polygon points="1293.53 1073.03 1293.53 1028.51 1249.01 1028.51 1293.53 1073.03" style="fill:#f0dfcc;"/><polygon points="1338.05 1028.51 1338.05 983.99 1293.53 983.99 1338.05 1028.51" style="fill:#f0dfcc;"/><polygon points="1293.53 1028.51 1293.53 983.99 1249.01 983.99 1293.53 1028.51" style="fill:#f0dfcc;"/><polygon points="1142.47 983.99 1097.95 983.99 1120.21 1073.03 1142.47 983.99" style="fill:#f0dfcc;"/><polygon points="1097.95 983.99 1053.43 983.99 1075.69 1073.03 1097.95 983.99" style="fill:#f0dfcc;"/><polygon points="1053.43 983.99 1008.91 983.99 1031.17 1073.03 1053.43 983.99" style="fill:#f0dfcc;"/><polygon points="986.65 1073.03 1008.91 983.99 964.39 983.99 986.65 1073.03" style="fill:#f0dfcc;"/><path d="M1153.8,1028.51l-2.31,8.06c-.73,2.53,0,5.26,1.9,7.09l6.03,5.82,2.03,8.13c.64,2.56,2.63,4.55,5.19,5.19l8.13,2.03,5.82,6.03c1.83,1.89,4.56,2.63,7.09,1.9l8.06-2.31,8.06,2.31c2.53.73,5.26,0,7.09-1.9l5.82-6.03,8.13-2.03c2.56-.64,4.55-2.63,5.19-5.19l2.03-8.13,6.03-5.82c1.9-1.83,2.63-4.56,1.9-7.09l-2.31-8.06,2.31-8.06c.73-2.53,0-5.26-1.9-7.09l-6.03-5.82-2.03-8.13c-.64-2.56-2.63-4.55-5.19-5.19l-8.13-2.03-5.82-6.03c-1.83-1.89-4.56-2.63-7.09-1.9l-8.06,2.31-8.06-2.31c-2.53-.73-5.26,0-7.09,1.9l-5.82,6.03-8.13,2.03c-2.56.64-4.55,2.63-5.19,5.19l-2.03,8.13-6.03,5.82c-1.9,1.83-2.63,4.56-1.9,7.09l2.31,8.06Z" style="fill:#f0dfcc;"/><path d="M1052.78,929.12l-11.54-11.79-.18-16.5c-.01-1.24-1.02-2.25-2.26-2.26l-16.5-.18-11.79-11.54c-.89-.87-2.31-.87-3.2,0l-11.79,11.54-16.49.18c-1.24.01-2.25,1.02-2.26,2.26l-.18,16.5-11.54,11.79c-.87.89-.87,2.31,0,3.2l11.54,11.79.18,16.5c.01,1.25,1.02,2.25,2.26,2.26l16.5.18,11.79,11.54c.89.87,2.31.87,3.2,0l11.79-11.54,16.5-.18c1.24-.01,2.25-1.02,2.26-2.26l.18-16.5,11.54-11.79c.87-.89.87-2.31,0-3.2" style="fill:#f0dfcc;"/><path d="M1376.16,1036.08c-4.03,2.74-8.05,6.05-11.89,9.88-8.75,8.75-14.81,18.5-17.45,27.07,8.57-2.65,18.32-8.7,27.07-17.45,3.83-3.83,7.15-7.85,9.89-11.89,1.27,11.37,3.94,21.48,7.57,29.34,3.63-7.86,6.29-17.97,7.57-29.34,2.74,4.03,6.05,8.05,9.89,11.89,8.75,8.75,18.49,14.81,27.07,17.45-2.65-8.57-8.7-18.32-17.45-27.07-3.83-3.83-7.85-7.15-11.89-9.89,11.37-1.27,21.48-3.94,29.34-7.57-7.86-3.63-17.97-6.29-29.34-7.57,4.03-2.74,8.05-6.05,11.89-9.89,8.75-8.75,14.8-18.5,17.45-27.07-8.57,2.65-18.32,8.7-27.07,17.45-3.83,3.83-7.15,7.85-9.89,11.89-1.27-11.37-3.94-21.48-7.57-29.34-3.63,7.86-6.29,17.97-7.57,29.34-2.74-4.03-6.05-8.05-9.89-11.89-8.75-8.75-18.49-14.81-27.07-17.45,2.65,8.57,8.7,18.32,17.45,27.07,3.83,3.83,7.85,7.15,11.89,9.89-11.37,1.27-21.48,3.94-29.34,7.57,7.86,3.63,17.97,6.29,29.34,7.57" style="fill:#f0dfcc;"/></svg>