<?xml version="1.0" encoding="UTF-8"?><svg id="Layer_1" xmlns="http://www.w3.org/2000/svg" xmlns:xlink="http://www.w3.org/1999/xlink" viewBox="0 0 1920 1129.49"><defs><clipPath id="clippath"><rect y="11.09" width="1920" height="1080" style="fill:none;"/></clipPath><clipPath id="clippath-1"><rect y="11.09" width="543.95" height="1080" style="fill:none;"/></clipPath></defs><g style="clip-path:url(#clippath);"><rect y="11.09" width="1920" height="1080" style="fill:#f7e8d7;"/><polygon points="18.24 460.08 134.82 489.23 134.82 430.94 18.24 460.08" style="fill:#f0dfcc;"/><polygon points="18.24 401.79 134.82 430.94 134.82 372.65 18.24 401.79" style="fill:#f0dfcc;"/><polygon points="18.24 11.09 18.24 233.16 37.67 37.28 57.1 205.67 76.53 37.28 95.96 205.67 115.39 37.28 134.82 233.16 134.82 11.09 18.24 11.09" style="fill:#f0dfcc;"/><polygon points="18.24 361.19 76.53 361.19 76.53 302.9 18.24 361.19" style="fill:#f0dfcc;"/><polygon points="18.24 244.61 18.24 302.9 76.53 302.9 18.24 244.61" style="fill:#f0dfcc;"/><polygon points="134.82 244.61 76.53 244.61 76.53 302.9 134.82 244.61" style="fill:#f0dfcc;"/><polygon points="134.82 361.19 134.82 302.9 76.53 302.9 134.82 361.19" style="fill:#f0dfcc;"/></g><g style="clip-path:url(#clippath-1);"><path d="M467.42,430.94c-32.19,0-58.29,26.1-58.29,58.29h58.29v-58.29Z" style="fill:#f0dfcc;"/><path d="M467.42,430.94c0-32.19-26.1-58.29-58.29-58.29v58.29h58.29Z" style="fill:#f0dfcc;"/><path d="M467.42,430.94c32.19,0,58.29-26.1,58.29-58.29h-58.29v58.29Z" style="fill:#f0dfcc;"/><path d="M467.42,430.94c0,32.19,26.1,58.29,58.29,58.29v-58.29h-58.29Z" style="fill:#f0dfcc;"/><polygon points="525.71 233.16 467.42 174.87 409.13 233.16 525.71 233.16" style="fill:#f0dfcc;"/><polygon points="467.42 174.87 525.71 174.87 467.42 116.58 409.13 174.87 467.42 174.87" style="fill:#f0dfcc;"/><polygon points="467.42 116.58 525.71 116.58 467.42 58.29 409.13 116.58 467.42 116.58" style="fill:#f0dfcc;"/><polygon points="467.42 0 409.13 58.29 467.42 58.29 525.71 58.29 467.42 0" style="fill:#f0dfcc;"/><path d="M457.51,283.03c-3.58-5.28-7.92-10.55-12.94-15.56-11.46-11.46-24.21-19.38-35.44-22.85,3.47,11.22,11.39,23.98,22.85,35.44,5.02,5.02,10.28,9.36,15.56,12.94-14.88,1.67-28.12,5.16-38.41,9.91,10.29,4.75,23.53,8.24,38.41,9.91-5.28,3.59-10.54,7.92-15.56,12.94-11.46,11.46-19.38,24.22-22.85,35.44,11.23-3.47,23.98-11.39,35.44-22.85,5.02-5.02,9.36-10.28,12.94-15.56,1.67,14.88,5.16,28.12,9.91,38.41,4.75-10.29,8.24-23.53,9.91-38.41,3.58,5.28,7.92,10.54,12.94,15.56,11.46,11.46,24.21,19.38,35.44,22.85-3.47-11.22-11.39-23.98-22.85-35.44-5.02-5.02-10.28-9.36-15.56-12.94,14.88-1.67,28.12-5.16,38.41-9.91-10.29-4.75-23.53-8.24-38.41-9.91,5.28-3.59,10.54-7.93,15.56-12.94,11.46-11.46,19.38-24.22,22.85-35.44-11.23,3.47-23.98,11.39-35.44,22.85-5.02,5.02-9.36,10.29-12.94,15.56-1.67-14.88-5.16-28.12-9.91-38.41-4.75,10.29-8.24,23.53-9.91,38.41" style="fill:#f0dfcc;"/><polygon points="262.86 128.07 204.57 128.07 204.57 186.36 262.86 128.07" style="fill:#f0dfcc;"/><polygon points="262.86 186.36 204.57 186.36 204.57 244.65 262.86 186.36" style="fill:#f0dfcc;"/><polygon points="204.57 128.07 146.28 128.07 146.28 186.36 204.57 128.07" style="fill:#f0dfcc;"/><polygon points="204.57 186.36 146.28 186.36 146.28 244.65 204.57 186.36" style="fill:#f0dfcc;"/><polygon points="146.27 384.13 146.27 442.42 262.85 413.28 146.27 384.13" style="fill:#f0dfcc;"/><polygon points="146.27 442.42 146.27 500.71 262.85 471.57 146.27 442.42" style="fill:#f0dfcc;"/><polygon points="146.27 500.71 146.27 559 262.85 529.86 146.27 500.71" style="fill:#f0dfcc;"/><polygon points="262.85 588.15 146.27 559 146.27 617.29 262.85 588.15" style="fill:#f0dfcc;"/><path d="M204.57,369.29l10.55,3.02c3.32.95,6.89,0,9.28-2.49l7.62-7.89,10.65-2.65c3.35-.83,5.96-3.45,6.8-6.79l2.65-10.65,7.89-7.62c2.48-2.4,3.44-5.97,2.49-9.28l-3.02-10.55,3.03-10.55c.95-3.32,0-6.89-2.49-9.28l-7.89-7.62-2.65-10.65c-.84-3.35-3.45-5.96-6.8-6.79l-10.65-2.65-7.62-7.89c-2.4-2.48-5.97-3.44-9.28-2.49l-10.55,3.03-10.55-3.03c-3.32-.95-6.89,0-9.28,2.49l-7.62,7.89-10.65,2.65c-3.35.84-5.96,3.45-6.79,6.79l-2.65,10.65-7.89,7.62c-2.48,2.4-3.44,5.97-2.49,9.28l3.02,10.55-3.03,10.55c-.95,3.32,0,6.89,2.49,9.28l7.89,7.62,2.65,10.65c.84,3.35,3.45,5.96,6.79,6.79l10.65,2.65,7.62,7.89c2.4,2.48,5.97,3.44,9.28,2.49l10.55-3.02Z" style="fill:#f0dfcc;"/><path d="M332.56,190.93s.02,0,.03,0c.01,0,.02,0,.03,0,.35,12.62,6.07,26.13,16.81,36.87,12.02,12.02,27.5,17.77,41.32,16.73,1.04-13.82-4.71-29.3-16.73-41.32-10.75-10.75-24.25-16.46-36.87-16.81,0-.01,0-.02,0-.03s0-.02,0-.03c12.62-.35,26.13-6.07,36.87-16.81,12.02-12.02,17.77-27.5,16.73-41.32-13.82-1.04-29.3,4.7-41.32,16.73-10.75,10.75-16.46,24.25-16.81,36.87-.01,0-.02,0-.03,0-.01,0-.02,0-.03,0-.35-12.62-6.07-26.13-16.81-36.87-12.02-12.02-27.5-17.77-41.32-16.73-1.04,13.82,4.7,29.3,16.73,41.32,10.75,10.75,24.25,16.46,36.87,16.81,0,.01,0,.02,0,.03s0,.02,0,.03c-12.62.35-26.13,6.07-36.87,16.81-12.02,12.02-17.77,27.5-16.73,41.32,13.82,1.04,29.3-4.71,41.32-16.73,10.75-10.75,16.46-24.25,16.81-36.87" style="fill:#f0dfcc;"/><polygon points="332.6 314.39 301.26 345.73 363.94 345.73 332.6 314.39" style="fill:#f0dfcc;"/><polygon points="363.94 283.05 301.26 283.05 332.6 314.39 363.94 283.05" style="fill:#f0dfcc;"/><path d="M390.89,372.34v-115.9s0-.34,0-.34h-116.58v116.58h116.58v-.34ZM301.26,345.73h0v-62.68l-26.61-26.61h115.9s-26.61,26.61-26.61,26.61v62.68l26.61,26.61h-115.9l26.61-26.61Z" style="fill:#f0dfcc;"/><polygon points="332.6 430.97 301.26 399.63 301.26 462.31 332.6 430.97" style="fill:#f0dfcc;"/><polygon points="363.94 462.31 363.94 399.63 332.6 430.97 363.94 462.31" style="fill:#f0dfcc;"/><path d="M274.65,489.26h115.9s.34,0,.34,0v-116.58h-116.58v116.58h.34ZM301.26,399.63h62.68l26.61-26.61v115.9s-26.61-26.61-26.61-26.61h-62.68l-26.61,26.61v-115.9l26.61,26.61Z" style="fill:#f0dfcc;"/><path d="M334.69,616.44l15.44-15.11,21.6-.23c1.63-.02,2.95-1.33,2.96-2.96l.23-21.6,15.11-15.44c1.14-1.17,1.14-3.03,0-4.19l-15.11-15.44-.23-21.6c-.02-1.63-1.33-2.95-2.96-2.96l-21.6-.23-15.44-15.11c-1.17-1.14-3.03-1.14-4.19,0l-15.44,15.11-21.6.23c-1.63.02-2.95,1.33-2.96,2.96l-.24,21.6-15.11,15.44c-1.14,1.17-1.14,3.03,0,4.19l15.11,15.44.23,21.6c.02,1.63,1.33,2.95,2.96,2.96l21.6.23,15.44,15.11c1.17,1.14,3.03,1.14,4.19,0" style="fill:#f0dfcc;"/><polygon points="274.31 87.44 390.89 116.58 390.89 58.29 274.31 87.44" style="fill:#f0dfcc;"/><polygon points="274.31 29.15 390.89 58.29 390.89 0 274.31 29.15" style="fill:#f0dfcc;"/><path d="M467.42,504.1l-10.55-3.02c-3.32-.95-6.89,0-9.28,2.49l-7.62,7.89-10.65,2.65c-3.35.83-5.96,3.45-6.79,6.79l-2.65,10.65-7.89,7.62c-2.48,2.4-3.44,5.97-2.49,9.28l3.02,10.55-3.02,10.55c-.95,3.32,0,6.89,2.49,9.28l7.89,7.62,2.65,10.65c.83,3.35,3.45,5.96,6.79,6.8l10.65,2.65,7.62,7.89c2.4,2.48,5.97,3.44,9.28,2.49l10.55-3.02,10.55,3.02c3.32.95,6.89,0,9.28-2.49l7.62-7.89,10.65-2.65c3.35-.83,5.96-3.45,6.79-6.8l2.65-10.65,7.89-7.62c2.48-2.4,3.44-5.97,2.49-9.28l-3.02-10.55,3.02-10.55c.95-3.32,0-6.89-2.49-9.28l-7.89-7.62-2.65-10.65c-.83-3.35-3.45-5.96-6.79-6.79l-10.65-2.65-7.62-7.89c-2.4-2.48-5.97-3.44-9.28-2.49l-10.55,3.02Z" style="fill:#f0dfcc;"/><path d="M74.44,501.57l-15.44,15.11-21.6.23c-1.63.02-2.95,1.33-2.96,2.96l-.23,21.6-15.11,15.44c-1.14,1.17-1.14,3.03,0,4.19l15.11,15.44.23,21.6c.02,1.63,1.33,2.95,2.96,2.96l21.6.23,15.44,15.11c1.17,1.14,3.03,1.14,4.19,0l15.44-15.11,21.6-.23c1.63-.02,2.95-1.33,2.96-2.96l.23-21.6,15.11-15.44c1.14-1.17,1.14-3.03,0-4.19l-15.11-15.44-.23-21.6c-.02-1.63-1.33-2.95-2.96-2.96l-21.6-.23-15.44-15.11c-1.17-1.14-3.03-1.14-4.19,0" style="fill:#f0dfcc;"/><path d="M214.47,78.17c3.58,5.28,7.92,10.54,12.94,15.56,11.46,11.46,24.21,19.38,35.44,22.85-3.47-11.22-11.39-23.98-22.85-35.44-5.02-5.02-10.28-9.36-15.56-12.94,14.88-1.67,28.12-5.16,38.41-9.91-10.29-4.75-23.53-8.24-38.41-9.91,5.28-3.59,10.55-7.92,15.56-12.94C251.46,23.98,259.39,11.22,262.86,0c-11.22,3.47-23.98,11.39-35.44,22.85-5.02,5.02-9.36,10.28-12.94,15.56-1.67-14.88-5.16-28.12-9.91-38.41-4.75,10.29-8.24,23.53-9.91,38.41-3.59-5.28-7.93-10.55-12.94-15.56-11.46-11.46-24.21-19.38-35.44-22.85,3.47,11.22,11.39,23.98,22.85,35.44,5.02,5.02,10.28,9.36,15.56,12.94-14.88,1.67-28.12,5.16-38.41,9.91,10.29,4.75,23.53,8.24,38.41,9.91-5.28,3.59-10.54,7.93-15.56,12.94-11.46,11.46-19.38,24.22-22.85,35.44,11.23-3.47,23.98-11.39,35.44-22.85,5.02-5.02,9.36-10.28,12.94-15.56,1.67,14.88,5.16,28.12,9.91,38.41,4.75-10.29,8.24-23.53,9.91-38.41" style="fill:#f0dfcc;"/><polygon points="18.24 1088.86 134.82 1118.01 134.82 1059.72 18.24 1088.86" style="fill:#f0dfcc;"/><polygon points="18.24 1030.57 134.82 1059.72 134.82 1001.43 18.24 1030.57" style="fill:#f0dfcc;"/><polygon points="18.24 861.94 37.67 666.06 57.1 834.45 76.53 666.06 95.96 834.45 115.39 666.06 134.82 861.94 134.82 628.78 18.24 628.78 18.24 861.94" style="fill:#f0dfcc;"/><polygon points="18.24 989.97 76.53 989.97 76.53 931.68 18.24 989.97" style="fill:#f0dfcc;"/><polygon points="18.24 873.39 18.24 931.68 76.53 931.68 18.24 873.39" style="fill:#f0dfcc;"/><polygon points="134.82 873.39 76.53 873.39 76.53 931.68 134.82 873.39" style="fill:#f0dfcc;"/><polygon points="134.82 989.97 134.82 931.68 76.53 931.68 134.82 989.97" style="fill:#f0dfcc;"/><path d="M467.42,1059.72c-32.19,0-58.29,26.1-58.29,58.29h58.29v-58.29Z" style="fill:#f0dfcc;"/><path d="M467.42,1059.72c0-32.19-26.1-58.29-58.29-58.29v58.29h58.29Z" style="fill:#f0dfcc;"/><path d="M467.42,1059.72c32.19,0,58.29-26.1,58.29-58.29h-58.29v58.29Z" style="fill:#f0dfcc;"/><path d="M467.42,1059.72c0,32.19,26.1,58.29,58.29,58.29v-58.29h-58.29Z" style="fill:#f0dfcc;"/><polygon points="525.71 861.94 467.42 803.65 409.13 861.94 525.71 861.94" style="fill:#f0dfcc;"/><polygon points="467.42 803.65 525.71 803.65 467.42 745.36 409.13 803.65 467.42 803.65" style="fill:#f0dfcc;"/><polygon points="467.42 745.36 525.71 745.36 467.42 687.07 409.13 745.36 467.42 745.36" style="fill:#f0dfcc;"/><polygon points="467.42 628.78 409.13 687.07 467.42 687.07 525.71 687.07 467.42 628.78" style="fill:#f0dfcc;"/><path d="M457.51,911.81c-3.58-5.28-7.92-10.54-12.94-15.56-11.46-11.46-24.21-19.38-35.44-22.85,3.47,11.22,11.39,23.98,22.85,35.44,5.02,5.02,10.28,9.36,15.56,12.94-14.88,1.67-28.12,5.16-38.41,9.91,10.29,4.75,23.53,8.24,38.41,9.91-5.28,3.59-10.54,7.93-15.56,12.94-11.46,11.46-19.38,24.21-22.85,35.44,11.23-3.47,23.98-11.39,35.44-22.85,5.02-5.02,9.36-10.28,12.94-15.56,1.67,14.88,5.16,28.12,9.91,38.41,4.75-10.29,8.24-23.53,9.91-38.41,3.58,5.28,7.92,10.54,12.94,15.56,11.46,11.46,24.21,19.38,35.44,22.85-3.47-11.22-11.39-23.98-22.85-35.44-5.02-5.02-10.28-9.36-15.56-12.94,14.88-1.67,28.12-5.16,38.41-9.91-10.29-4.75-23.53-8.24-38.41-9.91,5.28-3.59,10.54-7.93,15.56-12.94,11.46-11.46,19.38-24.21,22.85-35.44-11.23,3.47-23.98,11.39-35.44,22.85-5.02,5.02-9.36,10.29-12.94,15.56-1.67-14.88-5.16-28.12-9.91-38.41-4.75,10.29-8.24,23.53-9.91,38.41" style="fill:#f0dfcc;"/><polygon points="262.86 756.85 204.57 756.85 204.57 815.14 262.86 756.85" style="fill:#f0dfcc;"/><polygon points="262.86 815.14 204.57 815.14 204.57 873.43 262.86 815.14" style="fill:#f0dfcc;"/><polygon points="204.57 756.85 146.28 756.85 146.28 815.14 204.57 756.85" style="fill:#f0dfcc;"/><polygon points="204.57 815.14 146.28 815.14 146.28 873.43 204.57 815.14" style="fill:#f0dfcc;"/><polygon points="146.27 1012.91 146.27 1071.2 262.85 1042.06 146.27 1012.91" style="fill:#f0dfcc;"/><polygon points="146.27 1071.2 146.27 1129.49 262.85 1100.35 146.27 1071.2" style="fill:#f0dfcc;"/><path d="M204.57,998.07l10.55,3.02c3.32.95,6.89,0,9.28-2.49l7.62-7.89,10.65-2.65c3.35-.83,5.96-3.45,6.8-6.79l2.65-10.65,7.89-7.62c2.48-2.4,3.44-5.97,2.49-9.28l-3.02-10.55,3.03-10.55c.95-3.32,0-6.89-2.49-9.28l-7.89-7.62-2.65-10.65c-.84-3.35-3.45-5.96-6.8-6.79l-10.65-2.65-7.62-7.89c-2.4-2.48-5.97-3.44-9.28-2.49l-10.55,3.02-10.55-3.02c-3.32-.95-6.89,0-9.28,2.49l-7.62,7.89-10.65,2.65c-3.35.84-5.96,3.45-6.79,6.79l-2.65,10.65-7.89,7.62c-2.48,2.4-3.44,5.97-2.49,9.28l3.02,10.55-3.03,10.55c-.95,3.32,0,6.89,2.49,9.28l7.89,7.62,2.65,10.65c.84,3.35,3.45,5.96,6.79,6.79l10.65,2.65,7.62,7.89c2.4,2.48,5.97,3.44,9.28,2.49l10.55-3.02Z" style="fill:#f0dfcc;"/><path d="M332.56,819.71s.02,0,.03,0c.01,0,.02,0,.03,0,.35,12.62,6.07,26.13,16.81,36.87,12.02,12.02,27.5,17.77,41.32,16.73,1.04-13.82-4.71-29.3-16.73-41.32-10.75-10.75-24.25-16.46-36.87-16.81,0-.01,0-.02,0-.03s0-.02,0-.03c12.62-.35,26.13-6.07,36.87-16.81,12.02-12.02,17.77-27.5,16.73-41.32-13.82-1.04-29.3,4.7-41.32,16.73-10.75,10.75-16.46,24.25-16.81,36.87-.01,0-.02,0-.03,0-.01,0-.02,0-.03,0-.35-12.62-6.07-26.13-16.81-36.87-12.02-12.02-27.5-17.77-41.32-16.73-1.04,13.82,4.7,29.3,16.73,41.32,10.75,10.75,24.25,16.46,36.87,16.81,0,.01,0,.02,0,.03s0,.02,0,.03c-12.62.35-26.13,6.07-36.87,16.81-12.02,12.02-17.77,27.5-16.73,41.32,13.82,1.04,29.3-4.71,41.32-16.73,10.75-10.75,16.46-24.25,16.81-36.87" style="fill:#f0dfcc;"/><polygon points="332.6 943.17 301.26 974.51 363.94 974.51 332.6 943.17" style="fill:#f0dfcc;"/><polygon points="363.94 911.83 301.26 911.83 332.6 943.17 363.94 911.83" style="fill:#f0dfcc;"/><path d="M390.89,1001.12v-115.9s0-.34,0-.34h-116.58v116.58h116.58v-.34ZM301.26,974.51h0v-62.68h0s-26.61-26.61-26.61-26.61h115.9s-26.61,26.61-26.61,26.61v62.68l26.61,26.61h-115.9l26.61-26.61Z" style="fill:#f0dfcc;"/><polygon points="332.6 1059.75 301.26 1028.41 301.26 1091.09 332.6 1059.75" style="fill:#f0dfcc;"/><polygon points="363.94 1091.09 363.94 1028.41 332.6 1059.75 363.94 1091.09" style="fill:#f0dfcc;"/><path d="M274.65,1118.04h115.9s.34,0,.34,0v-116.58h-116.58v116.58h.34ZM301.26,1028.41h62.68l26.61-26.61v115.9s-26.61-26.61-26.61-26.61h-62.68l-26.61,26.61v-115.9l26.61,26.61Z" style="fill:#f0dfcc;"/><polygon points="274.31 716.22 390.89 745.36 390.89 687.07 274.31 716.22" style="fill:#f0dfcc;"/><polygon points="274.31 657.93 390.89 687.07 390.89 628.78 274.31 657.93" style="fill:#f0dfcc;"/><path d="M214.47,706.95c3.59,5.28,7.93,10.54,12.94,15.56,11.46,11.46,24.21,19.38,35.44,22.85-3.47-11.22-11.39-23.98-22.85-35.44-5.02-5.02-10.28-9.36-15.56-12.94,14.88-1.67,28.12-5.16,38.41-9.91-10.29-4.75-23.53-8.24-38.41-9.91,5.28-3.59,10.54-7.93,15.56-12.94,11.46-11.46,19.38-24.22,22.85-35.44-11.23,3.47-23.98,11.39-35.44,22.85-5.02,5.02-9.36,10.28-12.94,15.56-1.67-14.88-5.16-28.12-9.91-38.41-4.75,10.29-8.24,23.53-9.91,38.41-3.58-5.28-7.93-10.54-12.94-15.56-11.46-11.46-24.21-19.38-35.44-22.85,3.47,11.22,11.39,23.98,22.85,35.44,5.02,5.02,10.28,9.36,15.56,12.94-14.88,1.67-28.12,5.16-38.41,9.91,10.29,4.75,23.53,8.24,38.41,9.91-5.28,3.58-10.54,7.93-15.56,12.94-11.46,11.46-19.38,24.21-22.85,35.44,11.23-3.47,23.98-11.39,35.44-22.85,5.02-5.02,9.36-10.29,12.94-15.56,1.67,14.88,5.16,28.12,9.91,38.41,4.75-10.29,8.24-23.53,9.91-38.41" style="fill:#f0dfcc;"/></g></svg>