<svg width="106" height="26" viewBox="0 0 106 26" fill="none" xmlns="http://www.w3.org/2000/svg">
<g clip-path="url(#clip0_4182_1592)">
<path fill-rule="evenodd" clip-rule="evenodd" d="M12.0001 17.1029C12.1081 17.1658 12.2246 17.2288 12.341 17.2844C13.2083 17.6937 13.611 17.9626 13.611 18.5296C13.611 19.137 13.1231 19.6337 12.5265 19.6337C12.0619 19.6337 11.6748 19.3343 11.5199 18.9164C11.2326 19.216 10.8892 19.4541 10.5101 19.6165C10.131 19.7789 9.72375 19.8625 9.31241 19.8622C8.90566 19.8622 8.50288 19.7807 8.1271 19.6222C7.75131 19.4637 7.40987 19.2314 7.12229 18.9386C6.83469 18.6458 6.60657 18.2981 6.45097 17.9155C6.29536 17.5329 6.21532 17.1229 6.21539 16.7088C6.21539 16.5432 6.23821 16.3776 6.26161 16.212C4.67348 15.7391 3.45029 14.3912 3.17119 12.7035C3.13278 12.4591 3.10938 12.2147 3.10938 11.9624C3.10938 11.71 3.13278 11.4656 3.17119 11.2212C3.45809 9.54212 4.67348 8.18566 6.26161 7.71273L6.25861 7.69195C6.2364 7.53431 6.21479 7.38217 6.21479 7.21598C6.21471 6.80183 6.29478 6.39172 6.45042 6.00909C6.60608 5.62646 6.83424 5.27879 7.12189 4.98595C7.40955 4.69311 7.75106 4.46083 8.12691 4.30238C8.50276 4.14393 8.90561 4.06242 9.31241 4.0625C10.1725 4.0625 10.9545 4.42545 11.5199 5.00836C11.5958 4.79851 11.7328 4.61731 11.9128 4.48908C12.0927 4.36085 12.3068 4.29174 12.5265 4.29102C13.1231 4.29102 13.611 4.78778 13.611 5.39513C13.611 6.00981 13.2083 6.27806 12.341 6.68804C12.2557 6.72942 12.1716 6.77345 12.0889 6.82004L12.0001 6.86891C11.9305 6.90862 11.8608 6.94834 11.7984 6.98745C11.7444 7.01923 11.6982 7.05038 11.6514 7.08217C11.6367 7.0902 11.6226 7.0994 11.6094 7.10965C11.5957 7.11998 11.5813 7.12917 11.5661 7.13716C11.3033 7.31068 11.0632 7.51598 10.8303 7.72862C10.8231 7.73279 10.8166 7.73817 10.8111 7.7445C10.8051 7.75061 10.7991 7.75673 10.7919 7.7604C10.6989 7.85449 10.6058 7.9498 10.5206 8.0439L10.4858 8.08361C10.4744 8.09707 10.463 8.11112 10.451 8.12272C10.4144 8.16889 10.3772 8.21451 10.3394 8.2596C10.2811 8.32926 10.2241 8.39829 10.1725 8.46979C9.42139 9.48292 9.01363 10.7169 9.01052 11.9862C9.00999 13.2561 9.41813 14.4912 10.1725 15.5026C10.2687 15.6381 10.3733 15.767 10.4858 15.8888C10.4978 15.9022 10.5092 15.9163 10.5206 15.9279C10.5848 16.0049 10.6527 16.0727 10.7217 16.1418L10.7919 16.212C10.7991 16.2162 10.8056 16.2216 10.8111 16.2279C10.8171 16.234 10.8231 16.2395 10.8303 16.2438C11.0599 16.4603 11.3059 16.6578 11.5661 16.8347C11.5818 16.8426 11.5956 16.853 11.6088 16.8621C11.6222 16.8726 11.6365 16.882 11.6514 16.8902L11.7252 16.9373L11.7984 16.9843L11.8993 17.0436C11.9323 17.0632 11.9653 17.0833 12.0001 17.1029ZM22.7646 7.7445C24.3527 8.21744 25.576 9.56535 25.855 11.253C25.9371 11.7594 25.9371 12.276 25.855 12.7824C25.5681 14.4614 24.3527 15.8179 22.7646 16.2908L22.7675 16.3116C22.7899 16.4693 22.8114 16.6214 22.8114 16.7876C22.8116 17.2018 22.7315 17.612 22.5758 17.9946C22.4201 18.3773 22.1919 18.725 21.9041 19.0178C21.6164 19.3107 21.2749 19.5429 20.8989 19.7014C20.523 19.8598 20.1201 19.9412 19.7132 19.9411C19.3021 19.9405 18.8952 19.8565 18.5163 19.6942C18.1374 19.5318 17.794 19.2942 17.5063 18.9952C17.4305 19.2051 17.2934 19.3863 17.1135 19.5145C16.9336 19.6427 16.7194 19.7118 16.4998 19.7125C16.2125 19.7117 15.9372 19.5952 15.734 19.3885C15.5308 19.1817 15.4162 18.9015 15.4152 18.6091C15.4152 17.9937 15.8179 17.7255 16.6852 17.3155C16.7711 17.2752 16.8533 17.23 16.9373 17.1835L17.0262 17.1347C17.0958 17.0949 17.1654 17.0552 17.2278 17.0161C17.2818 16.9843 17.328 16.9532 17.3749 16.9214C17.3896 16.9134 17.4036 16.9042 17.4169 16.8939C17.4305 16.8836 17.445 16.8744 17.4601 16.8664C17.7204 16.6894 17.9664 16.4916 18.1959 16.275C18.2032 16.2708 18.2097 16.2654 18.2151 16.2591C18.2211 16.253 18.2271 16.2475 18.2343 16.2438C18.3274 16.1491 18.4204 16.0544 18.5056 15.9597L18.5404 15.9206C18.5518 15.9065 18.5632 15.8925 18.5753 15.8808C18.6113 15.8344 18.6497 15.7892 18.6869 15.744C18.7451 15.6743 18.8021 15.6059 18.8537 15.5338C19.574 14.5562 20.0157 13.3341 20.0157 12.0174C20.0162 10.7477 19.6079 9.51278 18.8537 8.50155C18.7576 8.36592 18.6529 8.23673 18.5404 8.11479C18.5284 8.10133 18.517 8.08729 18.5056 8.07568C18.4212 7.97525 18.3305 7.88035 18.2343 7.79156C18.2271 7.78736 18.2206 7.78199 18.2151 7.77567C18.2096 7.76954 18.2031 7.76439 18.1959 7.7604C17.9644 7.54608 17.7185 7.34846 17.4601 7.16892C17.4452 7.16092 17.431 7.15172 17.4175 7.14143C17.4037 7.13165 17.3905 7.12188 17.3749 7.11393C17.3514 7.09805 17.3268 7.08217 17.301 7.06627C17.2764 7.05104 17.2519 7.03536 17.2278 7.01923L17.127 6.95996C16.9842 6.87182 16.837 6.79145 16.6858 6.71922C15.8257 6.30189 15.4152 6.03364 15.4152 5.4263C15.4152 4.81955 15.9032 4.32279 16.4998 4.32279C16.9643 4.32279 17.3514 4.62219 17.5063 5.04013C17.7937 4.74051 18.137 4.50246 18.5161 4.34002C18.8953 4.17757 19.3025 4.09402 19.7138 4.09427C20.1206 4.09427 20.5233 4.17585 20.8991 4.33433C21.2749 4.49281 21.6164 4.72511 21.904 5.01794C22.1916 5.31078 22.4197 5.65842 22.5753 6.041C22.7308 6.42361 22.8109 6.83366 22.8109 7.24774C22.8109 7.41273 22.7881 7.57892 22.7646 7.7445Z" fill="#FEFEFE"/>
<path d="M17.8934 11.9956C17.8937 11.5441 17.8065 11.097 17.6369 10.6799C17.4673 10.2627 17.2185 9.88371 16.9049 9.56451C16.5913 9.2453 16.219 8.99216 15.8092 8.81955C15.3994 8.64695 14.9602 8.55827 14.5167 8.55859C14.0733 8.55836 13.6341 8.6471 13.2243 8.81978C12.8146 8.99246 12.4423 9.24567 12.1287 9.56494C11.8152 9.8842 11.5665 10.2633 11.397 10.6804C11.2274 11.0976 11.1403 11.5447 11.1406 11.9962C11.1404 12.4476 11.2275 12.8946 11.3971 13.3118C11.5667 13.7289 11.8154 14.1078 12.1289 14.427C12.4425 14.7462 12.8148 14.9994 13.2245 15.172C13.6342 15.3447 14.0733 15.4334 14.5167 15.4332C14.9602 15.4335 15.3994 15.3448 15.8092 15.1722C16.219 14.9996 16.5913 14.7465 16.9049 14.4273C17.2185 14.1081 17.4673 13.729 17.6369 13.3119C17.8065 12.8947 17.8937 12.4477 17.8934 11.9962V11.9956Z" fill="#FEFEFE"/>
</g>
<path d="M94.3906 25.25C93.2156 25.25 92.2656 24.875 92.2656 24.875V22.125C92.2656 22.125 92.8906 22.5 93.7656 22.5C94.8906 22.5 95.4656 21.85 95.8906 20.875L96.2656 20L91.3906 7.75H94.5156L97.7656 16.25H97.8906L101.016 7.75H104.141L98.8906 21.125C97.8656 23.75 96.5156 25.25 94.3906 25.25Z" fill="#FEFEFE"/>
<path d="M83.6484 20V7.75H86.5234V9.5H86.6484C86.6484 9.5 87.8984 7.5 90.1484 7.5H90.6484V10.625C90.6484 10.625 90.2734 10.5 89.6484 10.5C87.8984 10.5 86.5234 11.875 86.5234 14V20H83.6484Z" fill="#FEFEFE"/>
<path d="M74.7656 20.25C72.3906 20.25 70.7656 18.625 70.7656 16.75C70.7656 14.75 72.2656 13.25 74.3906 12.875L78.5156 12.125C78.5156 11.25 77.5156 10.25 76.1406 10.25C74.3156 10.25 73.1406 11.75 73.1406 11.75L71.3906 10C71.3906 10 73.1406 7.5 76.2656 7.5C79.2656 7.5 81.3906 9.7 81.3906 12.375V20H78.5156V18.375H78.3906C78.3906 18.375 77.2656 20.25 74.7656 20.25ZM75.5156 17.875C77.1406 17.875 78.5156 16.5 78.5156 14.75V14.375L75.6406 14.875C74.1406 15.15 73.6406 15.625 73.6406 16.375C73.6406 17.125 74.3906 17.875 75.5156 17.875Z" fill="#FEFEFE"/>
<path d="M62.6328 20V7.75H65.5078V9.5H65.6328C65.6328 9.5 66.8828 7.5 69.1328 7.5H69.6328V10.625C69.6328 10.625 69.2578 10.5 68.6328 10.5C66.8828 10.5 65.5078 11.875 65.5078 14V20H62.6328Z" fill="#FEFEFE"/>
<path d="M55.75 20.25C52.875 20.25 51.75 18.25 51.75 18.25H51.625V20H48.75V2.5H51.625V9.5H51.75C51.75 9.5 52.875 7.5 55.75 7.5C58.625 7.5 61.25 10.125 61.25 13.875C61.25 17.625 58.625 20.25 55.75 20.25ZM55 17.375C56.875 17.375 58.375 15.875 58.375 13.875C58.375 11.875 56.875 10.375 55 10.375C53.125 10.375 51.625 11.875 51.625 13.875C51.625 15.875 53.125 17.375 55 17.375Z" fill="#FEFEFE"/>
<path d="M43.5078 20V7.75H46.3828V20H43.5078ZM45.0078 6C44.0078 6 43.2578 5.25 43.2578 4.25C43.2578 3.25 44.0078 2.5 45.0078 2.5C46.0078 2.5 46.7578 3.25 46.7578 4.25C46.7578 5.25 46.0078 6 45.0078 6Z" fill="#FEFEFE"/>
<path d="M31 20V2.5H34.125V17H42.5V20H31Z" fill="#FEFEFE"/>
<defs>
<clipPath id="clip0_4182_1592">
<rect width="23" height="16" fill="white" transform="translate(3 4)"/>
</clipPath>
</defs>
</svg>
